<!--?xml version="1.0" encoding="utf-8"?-->
<!-- Generator: Adobe Illustrator 18.1.1, SVG Export Plug-In . SVG Version: 6.00 Build 0)  -->

<svg version="1.1" id="_x31_0" xmlns="http://www.w3.org/2000/svg" xmlns:xlink="http://www.w3.org/1999/xlink" x="0px" y="0px" viewBox="0 0 512 512" style="width: 128px; height: 128px; opacity: 1;" xml:space="preserve">
<style type="text/css">
	.st0{fill:#374149;}
</style>
<g>
	<path class="st0" d="M256,0C114.614,0,0,114.617,0,256c0,141.386,114.614,256,256,256s256-114.614,256-256
		C512,114.617,397.386,0,256,0z M256,448c-105.867,0-192-86.129-192-192c0-105.867,86.133-192,192-192s192,86.133,192,192
		C448,361.871,361.867,448,256,448z" style="fill: rgb(255, 255, 255);"></path>
	<path class="st0" d="M368.824,264.446c-4.558,0-9.039,0.637-13.277,1.839l-28.367-48.031l-23.79-40.542
		c2.383,1.258,4.626,2.801,6.555,4.734c4.706,4.703,11.164,7.594,18.234,7.886c0.324,0.016,0.64,0.106,0.965,0.114v-0.016
		c0.054,0,0.106,0.016,0.16,0.016v-54.801c-7.52,0-14.398,3.038-19.359,8c-4.801,4.801-11.122,7.839-17.918,7.839h-19.121
		c-5.922,0-10.719,4.801-10.719,10.641v1.84c0,3.598,1.867,6.676,4.622,8.614c0.285,0.226,0.535,0.484,0.843,0.691
		c-2.386,1.426-5.086,2.617-8.027,3.336c-3.039,0.718-8.718,1.359-12.238-2.082c-2.48-2.48-6.562-2.398-8.961,0.082
		c-2.48,2.477-2.398,6.477,0.078,8.957c2.562,2.481,5.602,4.242,9.043,5.282c4.398,1.281,9.519,1.359,15.038,0.078
		c6.25-1.542,12.172-4.668,16.895-8.621c0.179-0.141,0.374-0.262,0.554-0.406l5.512,9.348l8.801,14.882v30.719l-17.985,27.175
		l-11.023,16.477c-3.844-11.48-10.703-21.918-19.715-30.371c-9.121-8.562-20.398-15.121-33.121-19.121h-55.758
		c-28.879,9.039-50.559,31.679-55.282,59.281c-0.078,0.078-0.078,0.078-0.078,0.078c-3.839,2.481-6.402,6.879-6.242,11.922
		c0.242,7.438,6.801,13.278,14.242,13.278h151.598c8.801,0,17.122-4.48,22-11.84l28.962-43.758
		c3.441-5.282,11.281-5.043,14.402,0.398l10.797,18.082c-10,8.797-16.238,21.679-16.238,35.918c0,26.481,21.519,48,47.918,48
		c26.481,0,48-21.519,48-48C416.824,285.965,395.305,264.446,368.824,264.446z M391.547,312.363
		c0,12.558-10.161,22.719-22.723,22.719c-12.476,0-22.637-10.161-22.637-22.719c0-4.961,1.598-9.519,4.398-13.199l7.199,12.558
		c2,3.36,5.52,5.199,9.122,5.199c1.84,0,3.679-0.476,5.359-1.438c4.961-3.038,6.641-9.519,3.68-14.48l-4.309-7.5l-2.07-3.77
		C381.758,290.11,391.547,300.156,391.547,312.363z" style="fill: rgb(255, 255, 255);"></path>
	<path class="st0" d="M195.785,322.125c-3.598,7.68-11.437,12.958-20.398,12.958c-8.961,0-16.801-5.278-20.402-12.958h-21.957
		l-4.367-0.031c0.004,0.008,0.008,0.02,0.012,0.031h-0.168c4.48,21.84,23.762,38.238,46.882,38.238
		c21.402,0,39.356-14.125,45.485-33.539c0.484-1.504,1.058-2.973,1.394-4.542h-0.047c0.012-0.055,0.035-0.102,0.047-0.157H195.785z" style="fill: rgb(255, 255, 255);"></path>
	<path class="st0" d="M230.16,198.914c0-4.641-3.797-8.438-8.438-8.438h-78.5c-4.644,0-8.441,3.797-8.441,8.438v21.625h95.378
		V198.914z" style="fill: rgb(255, 255, 255);"></path>
</g>
</svg>
