<svg display="none" xmlns="http://www.w3.org/2000/svg">
    <symbol id="scooter" viewBox="0 0 512 512">
        <g>
            <path class="st0" d="M256,0C114.614,0,0,114.617,0,256c0,141.386,114.614,256,256,256s256-114.614,256-256
                C512,114.617,397.386,0,256,0z M256,448c-105.867,0-192-86.129-192-192c0-105.867,86.133-192,192-192s192,86.133,192,192
                C448,361.871,361.867,448,256,448z"
                />
            <path class="st0" d="M368.824,264.446c-4.558,0-9.039,0.637-13.277,1.839l-28.367-48.031l-23.79-40.542
                c2.383,1.258,4.626,2.801,6.555,4.734c4.706,4.703,11.164,7.594,18.234,7.886c0.324,0.016,0.64,0.106,0.965,0.114v-0.016
                c0.054,0,0.106,0.016,0.16,0.016v-54.801c-7.52,0-14.398,3.038-19.359,8c-4.801,4.801-11.122,7.839-17.918,7.839h-19.121
                c-5.922,0-10.719,4.801-10.719,10.641v1.84c0,3.598,1.867,6.676,4.622,8.614c0.285,0.226,0.535,0.484,0.843,0.691
                c-2.386,1.426-5.086,2.617-8.027,3.336c-3.039,0.718-8.718,1.359-12.238-2.082c-2.48-2.48-6.562-2.398-8.961,0.082
                c-2.48,2.477-2.398,6.477,0.078,8.957c2.562,2.481,5.602,4.242,9.043,5.282c4.398,1.281,9.519,1.359,15.038,0.078
                c6.25-1.542,12.172-4.668,16.895-8.621c0.179-0.141,0.374-0.262,0.554-0.406l5.512,9.348l8.801,14.882v30.719l-17.985,27.175
                l-11.023,16.477c-3.844-11.48-10.703-21.918-19.715-30.371c-9.121-8.562-20.398-15.121-33.121-19.121h-55.758
                c-28.879,9.039-50.559,31.679-55.282,59.281c-0.078,0.078-0.078,0.078-0.078,0.078c-3.839,2.481-6.402,6.879-6.242,11.922
                c0.242,7.438,6.801,13.278,14.242,13.278h151.598c8.801,0,17.122-4.48,22-11.84l28.962-43.758
                c3.441-5.282,11.281-5.043,14.402,0.398l10.797,18.082c-10,8.797-16.238,21.679-16.238,35.918c0,26.481,21.519,48,47.918,48
                c26.481,0,48-21.519,48-48C416.824,285.965,395.305,264.446,368.824,264.446z M391.547,312.363
                c0,12.558-10.161,22.719-22.723,22.719c-12.476,0-22.637-10.161-22.637-22.719c0-4.961,1.598-9.519,4.398-13.199l7.199,12.558
                c2,3.36,5.52,5.199,9.122,5.199c1.84,0,3.679-0.476,5.359-1.438c4.961-3.038,6.641-9.519,3.68-14.48l-4.309-7.5l-2.07-3.77
                C381.758,290.11,391.547,300.156,391.547,312.363z"/>
            <path class="st0" d="M195.785,322.125c-3.598,7.68-11.437,12.958-20.398,12.958c-8.961,0-16.801-5.278-20.402-12.958h-21.957
                l-4.367-0.031c0.004,0.008,0.008,0.02,0.012,0.031h-0.168c4.48,21.84,23.762,38.238,46.882,38.238
                c21.402,0,39.356-14.125,45.485-33.539c0.484-1.504,1.058-2.973,1.394-4.542h-0.047c0.012-0.055,0.035-0.102,0.047-0.157H195.785z"/>
            <path class="st0" d="M230.16,198.914c0-4.641-3.797-8.438-8.438-8.438h-78.5c-4.644,0-8.441,3.797-8.441,8.438v21.625h95.378
                V198.914z"/>
        </g>
    </symbol>
    <symbol id="plane" viewBox="0 0 512 512">
        <g>
            <path class="st0" d="M256,0C114.614,0,0,114.614,0,256s114.614,256,256,256s256-114.614,256-256S397.386,0,256,0z M427.691,299.211
                l-0.042,7.754l-114.118-31.406l-27.477-7.602l-0.004,0.039l-0.156-0.043l-2.91,116.582l26.566,8.89
                c3.727,1.246,6.238,4.738,6.238,8.668v16.758c0,0.699-0.102,1.371-0.25,2.02c-0.023,0.113-0.039,0.23-0.066,0.344
                c-0.558,2.094-1.824,3.859-3.5,5.062c-0.02,0.015-0.043,0.027-0.066,0.042c-1.086,0.766-2.336,1.282-3.668,1.52
                c-0.09,0.015-0.176,0.039-0.266,0.054c-1.394,0.203-2.863,0.098-4.321-0.406l-44.66-15.476c-1.938-0.672-4.046-0.672-5.984,0
                l-44.66,15.476c-1.477,0.512-2.965,0.618-4.371,0.402c-0.031-0.004-0.059-0.011-0.09-0.015c-1.378-0.226-2.671-0.766-3.789-1.555
                c-0.023-0.011-0.043-0.023-0.062-0.038c-1.691-1.211-2.969-2.989-3.519-5.102c-0.02-0.078-0.028-0.157-0.047-0.234
                c-0.156-0.672-0.258-1.367-0.258-2.094v-16.758c0-3.93,2.511-7.422,6.242-8.668l26.563-8.89l-2.34-93.867l-0.524-22.562
                l-0.038,0.011l-0.004-0.164l-112.094,30.848l-29.707,8.133v-36.813l140.019-73.562l-1.969-78.918C222.359,99.141,237.496,84,256,84
                s33.641,15.141,33.641,33.641l-1.969,78.918l140.019,73.562V299.211z"/>
        </g>
    </symbol>
</svg>